<svg width="36" height="696" viewBox="0 0 36 696" fill="none" xmlns="http://www.w3.org/2000/svg">
<rect width="36" height="696" fill="white"/>
<path d="M19.2981 603.156C13.9031 654.154 24.4594 591.509 13.9031 561.288C3.34692 531.067 8.03936 489.199 8.03936 489.199C8.03936 489.199 2.17467 497.069 19.2981 461.181C36.4216 425.294 13.9032 324.243 19.2981 314.799C24.693 305.356 38.1294 237.014 19.2981 170.936C0.466816 104.858 20.1601 65.8029 19.2981 39.3497V0" stroke="black"/>
<path d="M17.3668 677.933C17.3618 676.985 17.3461 675.176 17.3367 673.91C17.3273 672.649 17.31 670.469 17.2983 669.071C17.2867 667.673 17.2696 665.439 17.2604 664.11C17.2513 662.78 17.2342 660.556 17.2225 659.173C17.2107 657.789 17.1936 655.565 17.1845 654.236C17.1542 650.248 17.1294 647.075 17.1085 644.363C17.0969 642.95 17.0796 640.784 17.0701 639.548C17.0606 638.311 17.0415 635.882 17.031 634.147L17.0088 630.995L16.8784 630.482C16.5576 629.226 16.404 627.44 16.3856 624.801C16.3562 620.574 16.7435 617.742 17.409 617.311C17.7349 617.094 18.0728 617.358 18.3185 618.014C18.6079 618.801 18.799 620.096 18.9134 622.055C18.9705 623.076 18.9706 626.224 18.9094 627.179C18.787 629.118 18.6065 630.324 18.3283 631.082L18.2365 631.333L18.1934 634.224C18.1714 635.816 18.1357 638.147 18.1176 639.403C18.0995 640.664 18.0672 642.83 18.0458 644.222C18.0022 647.249 17.9486 650.792 17.9014 654.078C17.883 655.402 17.8506 657.607 17.8293 658.97C17.8081 660.337 17.7756 662.537 17.7573 663.861C17.7389 665.185 17.7063 667.42 17.6849 668.826C17.6635 670.233 17.6312 672.399 17.6131 673.645C17.595 674.891 17.5665 676.755 17.5546 677.797L17.5288 679.681L17.4545 679.667L17.3801 679.653L17.3668 677.933ZM17.7495 629.558C18.2042 627.139 18.2296 622.2 17.7979 619.585C17.7547 619.319 17.7059 619.095 17.6921 619.092C17.6618 619.086 17.5158 619.874 17.4562 620.366C17.1299 623.106 17.1789 627.259 17.5623 629.522C17.6001 629.739 17.6408 629.918 17.6546 629.92C17.6683 629.923 17.7102 629.76 17.7495 629.558Z" fill="black"/>
</svg>
